#!OML:ASF I:\Actors\actors\Patient Classification 2\Patient 1\Session 1\actor1.ASF
:FULLY-SPECIFIED
:DEGREES
307
root -0.94181 18.7765 4.50908 2.85771 -3.72685 -0.762953
lowerback 14.2491 0.141525 -3.59986
upperback 5.61385 -0.401513 -3.09578
thorax -2.05983 -0.213666 -1.1414
lowerneck -13.03 3.49432 6.44801
upperneck 30.2428 1.59391 5.35592
head 12.2084 2.08393 1.13273
rclavicle -1.03368e-014 0
rhumerus 67.9727 46.4267 -10.0506
rradius 84.0883
rwrist -30.9353
rhand -12.2965 -56.5122
rfingers 7.12502
rthumb 13.7713 -86.0364
lclavicle -1.03368e-014 0
lhumerus -5.0322 -9.51729 88.4139
lradius 91.1168
lwrist -30.6385
lhand 3.18039 1.86188
lfingers 7.12502
lthumb 28.6329 29.6882
rfemur 0 0 0
rtibia 0
rfoot 0 0
rtoes 0
lfemur -8.71724 -2.17075 -11.9775
ltibia 20.9633
lfoot -19.9163 17.182
ltoes -54.8877
308
root -0.956634 18.7744 4.4961 2.72711 -3.66891 -0.774652
lowerback 14.4159 0.122053 -3.83632
upperback 5.66434 -0.470629 -3.22888
thorax -2.09364 -0.249143 -1.13737
lowerneck -13.4343 3.97805 7.4272
upperneck 30.6468 2.19364 4.62343
head 12.4948 2.38295 0.798633
rclavicle 1.15295e-014 1.43125e-014
rhumerus 68.923 46.5515 -9.71975
rradius 83.8247
rwrist -30.8159
rhand -12.5256 -56.5111
rfingers 7.12502
rthumb 13.5504 -86.0502
lclavicle 1.15295e-014 1.43125e-014
lhumerus -4.09001 -8.14037 88.709
lradius 90.3227
lwrist -30.8341
lhand 2.82243 1.90862
lfingers 7.12502
lthumb 28.2909 29.7921
rfemur 0 0 0
rtibia 0
rfoot 0 0
rtoes 0
lfemur -8.58298 -2.23859 -11.9051
ltibia 20.8789
lfoot -19.8542 17.2116
ltoes -54.9481
309
root -0.968689 18.7744 4.48525 2.6482 -3.66977 -0.73712
lowerback 14.4672 0.103576 -4.02095
upperback 5.71406 -0.527246 -3.429
thorax -2.06747 -0.278017 -1.23465
lowerneck -13.4729 4.22502 7.90969
upperneck 30.725 2.49304 4.36105
head 12.558 2.53837 0.665711
rclavicle -7.95139e-015 0
rhumerus 69.6616 46.6322 -9.71178
rradius 83.6045
rwrist -30.5658
rhand -12.2568 -56.3268
rfingers 7.12502
rthumb 13.8095 -85.8484
lclavicle -7.95139e-015 0
lhumerus -3.09186 -6.90803 88.8914
lradius 89.5899
lwrist -30.1983
lhand 2.86478 2.04634
lfingers 7.12502
lthumb 28.3313 29.9231
rfemur 0 0 0
rtibia 0
rfoot 0 0
rtoes 0
lfemur -8.48537 -2.41396 -11.9111
ltibia 20.7986
lfoot -19.8728 17.3739
ltoes -54.9553
310
root -0.980072 18.7739 4.47628 2.56324 -3.73483 -0.699477
lowerback 14.5214 0.0852333 -4.24913
upperback 5.77662 -0.588086 -3.5927
thorax -2.02818 -0.310226 -1.26877
lowerneck -13.4192 4.37279 8.02023
upperneck 30.6151 2.68674 4.36268
head 12.5092 2.63194 0.67252
rclavicle 1.59028e-015 -3.49861e-014
rhumerus 70.3707 46.6547 -9.78847
rradius 83.414
rwrist -30.1328
rhand -11.9197 -55.9955
rfingers 7.12502
rthumb 14.1344 -85.4947
lclavicle 1.59028e-015 -3.49861e-014
lhumerus -2.12358 -5.65478 89.1213
lradius 88.8852
lwrist -29.353
lhand 2.42275 2.30318
lfingers 7.12502
lthumb 27.9088 30.2494
rfemur 0 0 0
rtibia 0
rfoot 0 0
rtoes 0
lfemur -8.37557 -2.52747 -11.9226
ltibia 20.7556
lfoot -19.9441 17.5189
ltoes -54.9127
311
root -0.991077 18.7726 4.46747 2.487 -3.8194 -0.793754
lowerback 14.6282 0.0719557 -4.43363
upperback 5.82542 -0.637288 -3.64342
thorax -2.03096 -0.336751 -1.21068
lowerneck -13.2979 4.41276 7.78021
upperneck 30.3575 2.76532 4.58632
head 12.3691 2.65858 0.798557
rclavicle -1.39149e-014 3.18055e-015
rhumerus 71.0038 46.6375 -9.86439
rradius 83.214
rwrist -29.6841
rhand -12.009 -56.0083
rfingers 7.12502
rthumb 14.0484 -85.5135
lclavicle -1.39149e-014 3.18055e-015
lhumerus -1.27682 -4.38379 89.5053
lradius 88.4255
lwrist -28.3152
lhand 2.18481 3.0885
lfingers 7.12502
lthumb 27.6813 31.0714
rfemur 0 0 0
rtibia 0
rfoot 0 0
rtoes 0
lfemur -8.28197 -2.51997 -11.7809
ltibia 20.7384
lfoot -19.9871 17.5686
ltoes -54.8641
312
root -1.00062 18.7711 4.45779 2.46215 -3.91358 -0.947322
lowerback 14.686 0.0758914 -4.55523
upperback 5.87313 -0.651124 -3.662
thorax -2.00951 -0.345735 -1.15983
lowerneck -12.9797 4.2337 7.00306
upperneck 29.8845 2.5336 5.36097
head 12.0758 2.54907 1.1638
rclavicle 1.98785e-014 -4.77083e-015
rhumerus 71.4765 46.5553 -10.0717
rradius 83.0054
rwrist -29.0783
rhand -12.3618 -56.4279
rfingers 7.12502
rthumb 13.7083 -85.9564
lclavicle 1.98785e-014 -4.77083e-015
lhumerus -0.463418 -3.14597 89.9399
lradius 88.13
lwrist -27.1869
lhand 2.37292 3.9056
lfingers 7.12502
lthumb 27.8612 31.8595
rfemur 0 0 0
rtibia 0
rfoot 0 0
rtoes 0
lfemur -8.25382 -2.4448 -11.5719
ltibia 20.739
lfoot -19.9916 17.5845
ltoes -54.8529
